<?xml version="1.0" encoding="UTF-8"?>
<svg width="113px" height="113px" viewBox="0 0 113 113" version="1.1" xmlns="http://www.w3.org/2000/svg" xmlns:xlink="http://www.w3.org/1999/xlink">
    <!-- Generator: Sketch 44.1 (41455) - http://www.bohemiancoding.com/sketch -->
    <title>startup@2x</title>
    <desc>Created with Sketch.</desc>
    <defs></defs>
    <g id="Page-1" stroke="none" stroke-width="1" fill="none" fill-rule="evenodd">
        <g id="Rocket-Equities" transform="translate(-663.000000, -305.000000)" fill-rule="nonzero">
            <g id="Modal-Error">
                <g id="startup" transform="translate(719.500000, 361.500000) rotate(-90.000000) translate(-719.500000, -361.500000) translate(663.000000, 305.000000)">
                    <path d="M77.6912133,69.234922 L69,69 L69.234922,77.6912133 C69.4698439,91.7851821 81.2148179,103.295234 95.3087867,103.765078 L104,104 L103.765078,95.3087867 C103.295009,81.2148179 91.7849573,69.4698439 77.6912133,69.234922 Z" id="Shape" fill="#F8B64C"></path>
                    <path d="M80.0746932,74.2336678 L74,74 L74.2336678,80.0746932 C74.4673357,90.1215162 82.8784838,98.5326643 92.9253068,98.7663322 L99,99 L98.7663322,92.9253068 C98.5326643,82.8784838 90.1212926,74.4673357 80.0746932,74.2336678 Z" id="Shape" fill="#FFD15C"></path>
                    <path d="M112.96657,68.6008381 C111.795969,66.4882001 110.156814,64.6103247 108.517882,62.9669871 C104.30336,58.7417113 99.1521772,55.9247858 93.5326644,54.5164354 C82.996358,51.9342724 71.2892264,54.7511979 63.0941222,62.9669871 C54.899018,71.1827764 52.0894857,82.9197786 54.6650771,93.483193 C56.0698432,98.8822814 58.8795996,104.281145 63.0941222,108.506421 C64.7330534,110.149534 66.8403147,111.792872 68.713635,112.966459 C56.5381733,113.435984 43.8946056,108.975946 34.5289004,99.5863443 C27.0362913,92.0746179 22.8217688,82.9197786 21.4170026,73.2954143 C19.5439064,59.4457741 23.992594,45.1266089 34.5289004,34.5634192 C45.0652068,24.0002295 59.5820948,19.5401911 73.1623226,21.4180666 C82.7621929,22.826417 92.1278982,27.0519175 99.3863422,34.5634192 C108.986213,43.7184832 113.4349,56.3945355 112.96657,68.6008381 Z" id="Shape" fill="#DA251F"></path>
                    <path d="M93,68.9325559 C86.3933082,28.5844727 51.7080069,-1.14575328 8.76417151,0.0339082681 L0.269885741,0.269885741 L0.0339082681,8.76417151 C-1.14575328,51.7080069 28.5844727,86.3933082 68.9325559,93 L93,68.9325559 Z" id="Shape" fill="#EDEDED"></path>
                    <g id="Group" fill="#29414E">
                        <path d="M50.0570352,87.7196144 C56.0072294,90.1197688 62.1956866,91.799808 68.621951,93 L92.6612187,68.7584179 C91.7090783,62.27807 89.8050252,56.0375308 87.424902,50.0372597 L50.0570352,87.7196144 Z" id="Shape"></path>
                        <path d="M36.52109,3.80780825 C27.8670462,1.21328883 18.5112506,-0.202026699 8.68762044,0.0338592233 L0.267493917,0.269745146 L0.0335766423,8.76073544 C-0.200340633,18.6670413 1.20293917,28.1015752 3.77580535,36.8284515 L36.52109,3.80780825 Z" id="Shape"></path>
                    </g>
                    <path d="M68,93.0094245 C70.4762018,93.5047123 73.2000474,93.7523561 75.6762492,94 L94,75.6762492 C93.7523561,72.9524035 93.5047123,70.4762018 93.0094245,68 L68,93.0094245 Z" id="Shape" fill="#EDEDED"></path>
                    <circle id="Oval" fill="#40596B" cx="39" cy="40" r="18"></circle>
                    <circle id="Oval" fill="#557AA6" cx="38.5" cy="39.5" r="12.5"></circle>
                </g>
            </g>
        </g>
    </g>
</svg>