<?xml version="1.0" encoding="UTF-8"?>
<svg width="80px" height="80px" viewBox="0 0 80 80" version="1.1" xmlns="http://www.w3.org/2000/svg" xmlns:xlink="http://www.w3.org/1999/xlink">
    <!-- Generator: Sketch 44.1 (41455) - http://www.bohemiancoding.com/sketch -->
    <title>004-home@1x</title>
    <desc>Created with Sketch.</desc>
    <defs></defs>
    <g id="Page-1" stroke="none" stroke-width="1" fill="none" fill-rule="evenodd">
        <g id="Rocket-Equities" transform="translate(-532.000000, -821.000000)" fill-rule="nonzero" fill="#2A3E49">
            <g id="Industries" transform="translate(0.000000, 587.000000)">
                <g id="004-home" transform="translate(532.000000, 234.000000)">
                    <path d="M6.1559375,59.89875 C6.32125,59.9667187 6.49453125,60 6.6665625,60 C7.01328125,60 7.35453125,59.8640625 7.60921875,59.609375 L29.3371875,37.8826563 L51.0573438,59.609375 C51.4373438,59.9907812 52.010625,60.1053125 52.510625,59.89875 C53.0079688,59.6920312 53.3332813,59.2054687 53.3332813,58.6667187 L53.3332813,41.3332813 C53.3332813,40.5973438 52.7359375,40 52,40 C51.2640625,40 50.6667188,40.5973438 50.6667188,41.3332813 L50.6667188,55.4465625 L30.2840625,35.0573438 C29.7840625,34.5573438 28.8907813,34.5573438 28.3907813,35.0573438 L8.00015625,55.4479687 L8.00015625,40 L14.666875,40 C15.4028125,40 16.0001563,39.4026562 16.0001563,38.6667188 L16.0001563,37.3334375 L18.666875,37.3334375 L18.666875,38.6667188 C18.666875,39.4026563 19.2642188,40 20.0001563,40 C20.7360938,40 21.3334375,39.4026562 21.3334375,38.6667188 L21.3334375,36 C21.3334375,35.2640625 20.7360937,34.6667188 20.0001563,34.6667188 L14.6667188,34.6667188 C13.9307813,34.6667188 13.3334375,35.2640625 13.3334375,36 L13.3334375,37.3332813 L6.66671875,37.3332813 C5.93078125,37.3332813 5.3334375,37.930625 5.3334375,38.6665625 L5.3334375,58.6665625 C5.33328125,59.2053125 5.65859375,59.6920312 6.1559375,59.89875 Z" id="Shape"></path>
                    <path d="M37.4653125,27.990625 C37.3826563,29.2320312 37.3332812,30.5585937 37.3332812,32 C37.3332812,38.6785937 39.3265625,42.6667188 42.6665625,42.6667188 C46.8771875,42.6667188 47.9998437,37.63875 47.9998437,34.6667188 C47.9998437,33.9307813 47.4025,33.3334375 46.6665625,33.3334375 C45.930625,33.3334375 45.3332812,33.9307813 45.3332812,34.6667188 C45.3332812,34.72 45.2185937,40 42.6665625,40 C41.12125,40 39.9998437,36.6359375 39.9998437,32 C39.9998437,16.4546875 45.4557812,14.6840625 45.6278125,14.6346875 C46.3304687,14.4746875 46.7825,13.7826563 46.6398437,13.0720313 C46.4971875,12.350625 45.7998437,11.8814062 45.071875,12.0267188 C44.8051562,12.08 43.8385937,12.3334375 42.6759375,13.329375 C42.6773437,13.1 42.6959375,12.8707813 42.7573437,12.6426563 C42.9414062,11.9546875 43.3826562,11.38 44,11.0240625 C44.6173437,10.668125 45.3359375,10.5734375 46.0226562,10.7573438 C46.710625,10.9426563 47.2867187,11.3840625 47.64125,12 C48.3771875,13.2732813 47.9398437,14.9079688 46.6665625,15.6426563 C46.0279687,16.0120313 45.810625,16.8279688 46.1785937,17.4653125 C46.4253125,17.8920313 46.8732812,18.130625 47.3345312,18.130625 C47.56125,18.130625 47.7904687,18.0732813 47.9998437,17.9520313 C50.5465625,16.48 51.42125,13.2120313 49.951875,10.6667188 C49.2398437,9.4334375 48.0892187,8.55078125 46.7132812,8.18140625 C45.3346875,7.81203125 43.8985937,8.0028125 42.6665625,8.7146875 C41.4332812,9.42671875 40.550625,10.5773438 40.18125,11.9532813 C39.8359375,13.24125 39.9998437,14.5785938 40.6265625,15.7959375 C39.4825,17.6573438 38.4132812,20.4292188 37.8185937,24.551875 C35.8226562,22.16125 34.6665625,19.1159375 34.6665625,15.9998438 C34.6665625,8.6478125 40.6479687,2.6665625 47.9998437,2.6665625 C55.3517187,2.6665625 61.333125,8.64796875 61.333125,15.9998438 C61.333125,23.3517187 55.3517187,29.333125 47.9998437,29.333125 C46.551875,29.333125 45.1278125,29.1025 43.7692187,28.6490625 C43.0732812,28.4170312 42.3159375,28.793125 42.0825,29.4904687 C41.8478125,30.1890625 42.2251562,30.94375 42.9239062,31.1771875 C44.5559375,31.7225 46.2639062,31.9998437 47.9998437,31.9998437 C56.8225,31.9998437 63.9998437,24.8225 63.9998437,15.9998437 C64,7.17734375 56.8226563,0 48,0 C39.1773437,0 32,7.17734375 32,16 C32,20.5467188 34.0414063,24.9653125 37.4653125,27.990625 Z" id="Shape"></path>
                    <path d="M79.609375,39.0573438 L65.7614062,25.209375 C65.2414062,24.689375 64.3973437,24.689375 63.8760937,25.209375 C63.3560938,25.7307813 63.3560938,26.5746875 63.8760937,27.0946875 L77.3334375,40.5520312 L77.3334375,45.3334375 L72.5520312,45.3334375 L72,44.7814062 L72,41.3334375 C72,40.5975 71.4026562,40.0001562 70.6667187,40.0001562 L69.3334375,40.0001562 L69.3334375,38.666875 C69.3334375,37.9309375 68.7360937,37.3335937 68.0001562,37.3335937 L64.5534375,37.3335937 L64.0001562,36.7803125 L64.0001562,33.3335937 C64.0001562,32.5976562 63.4028125,32.0003125 62.666875,32.0003125 L59.21875,32.0003125 L59.089375,31.8709375 C58.569375,31.3509375 57.7253125,31.3509375 57.2040625,31.8709375 C56.6840625,32.3923438 56.6840625,33.23625 57.2040625,33.75625 L57.7240625,34.27625 C57.9734375,34.526875 58.3134375,34.666875 58.6667188,34.666875 L61.3334375,34.666875 L61.3334375,37.3321875 C61.3334375,37.6854687 61.4734375,38.0242188 61.7228125,38.2735938 L63.0560938,39.6095313 C63.3067188,39.8601563 63.6454688,40.0001563 64.0001563,40.0001563 L66.666875,40.0001563 L66.666875,41.3334375 C66.666875,42.069375 67.2642187,42.6667188 68.0001563,42.6667188 L69.3334375,42.6667188 L69.3334375,45.3334375 C69.3334375,45.6867188 69.4734375,46.0267188 69.7240625,46.2760938 L71.0573438,47.609375 C71.3067188,47.86 71.6467188,48 72,48 L78.6667188,48 C79.4026563,48 80,47.4026563 80,46.6667188 L80,40 C80,39.6467187 79.86,39.3067187 79.609375,39.0573438 Z" id="Shape"></path>
                    <path d="M33.3332812,58.6667188 C32.5973437,58.6667188 32,59.2640625 32,60 L32,70.6667188 C32,71.4026562 32.5973438,72 33.3332812,72 L41.3332812,72 C42.0692187,72 42.6665625,71.4026563 42.6665625,70.6667188 L42.6665625,60 C42.6665625,59.2640625 42.0692188,58.6667188 41.3332812,58.6667188 L33.3332812,58.6667188 Z M40,69.3332812 L34.6667188,69.3332812 L34.6667188,61.3332813 L40,61.3332813 L40,69.3332812 Z" id="Shape"></path>
                    <path d="M78.6667187,77.3332812 L64,77.3332812 L64,71.8653125 C67.0385937,71.2453125 69.3332812,68.5532812 69.3332812,65.3332812 C69.3332812,65.16 69.2573438,48 62.6665625,48 C56.0759375,48 55.9998437,65.16 55.9998437,65.3332812 C55.9998437,68.5532812 58.2945312,71.2453125 61.333125,71.8653125 L61.333125,77.3332812 L50.6664062,77.3332812 L50.6664062,62 C50.6664062,61.2640625 50.0690625,60.6667188 49.333125,60.6667188 C48.5971875,60.6667188 47.9998437,61.2640625 47.9998437,62 L47.9998437,77.3332812 L29.3332812,77.3332812 L29.3332812,60 C29.3332812,59.2640625 28.7359375,58.6667188 28,58.6667188 L17.3332813,58.6667188 C16.5973438,58.6667188 16,59.2640625 16,60 L16,77.3332812 L10.6667187,77.3332812 L10.6667187,62 C10.6667187,61.2640625 10.069375,60.6667188 9.3334375,60.6667188 C8.5975,60.6667188 8,61.2640625 8,62 L8,77.3332812 L1.33328125,77.3332812 C0.59734375,77.3332812 0,77.930625 0,78.6665625 C0,79.4025 0.59734375,80 1.33328125,80 L78.6665625,80 C79.4025,80 79.9998437,79.4026563 79.9998437,78.6667188 C79.9998437,77.9307812 79.4026562,77.3332812 78.6667187,77.3332812 Z M26.6667187,68 L25.3334375,68 C24.5975,68 24.0001563,68.5973437 24.0001563,69.3332812 C24.0001563,70.0692188 24.5975,70.6665625 25.3334375,70.6665625 L26.6667187,70.6665625 L26.6667187,77.3332812 L18.6667188,77.3332812 L18.6667188,61.3332813 L26.6667187,61.3332813 L26.6667187,68 Z M58.6667187,65.3332812 C58.6667187,58.690625 60.4507812,50.6665625 62.6667187,50.6665625 C64.8826562,50.6665625 66.6667187,58.690625 66.6667187,65.3332812 C66.6667187,67.5385937 64.8720312,69.3332812 62.6667187,69.3332812 C60.4614062,69.3332812 58.6667187,67.5385938 58.6667187,65.3332812 Z" id="Shape"></path>
                </g>
            </g>
        </g>
    </g>
</svg>