<?xml version="1.0" encoding="UTF-8"?>
<svg width="70px" height="70px" viewBox="0 0 70 70" version="1.1" xmlns="http://www.w3.org/2000/svg" xmlns:xlink="http://www.w3.org/1999/xlink">
    <!-- Generator: Sketch 44.1 (41455) - http://www.bohemiancoding.com/sketch -->
    <title>003-money@1x</title>
    <desc>Created with Sketch.</desc>
    <defs></defs>
    <g id="Page-1" stroke="none" stroke-width="1" fill="none" fill-rule="evenodd">
        <g id="Rocket-Equities" transform="translate(-1136.000000, -831.000000)" fill-rule="nonzero" fill="#2A414E">
            <g id="Industries" transform="translate(0.000000, 587.000000)">
                <g id="003-money" transform="translate(1136.000000, 244.000000)">
                    <rect id="Rectangle-path" x="51.3333333" y="36.1666667" width="2.33333333" height="3.5"></rect>
                    <path d="M2.33333333,16.3333333 L15.1666667,16.3333333 C15.8666667,16.3333333 16.3333333,15.8666667 16.3333333,15.1666667 L16.3333333,2.33333333 L51.3333333,2.33333333 L51.3333333,5.83333333 L53.6666667,5.83333333 L53.6666667,1.16666667 C53.6666667,0.466666667 53.2,0 52.5,0 L15.1666667,0 L15.1666667,0 C15.05,0 14.9333333,0 14.8166667,0.116666667 L14.7,0.116666667 C14.5833333,0.233333333 14.4666667,0.233333333 14.35,0.35 L0.35,14.35 C0.233333333,14.4666667 0.233333333,14.5833333 0.116666667,14.7 L0.116666667,14.8166667 C0.116666667,14.9333333 0,15.05 0,15.1666667 L0,15.1666667 L0,68.8333333 C0,69.5333333 0.466666667,70 1.16666667,70 L43.1666667,70 L43.1666667,67.6666667 L2.33333333,67.6666667 L2.33333333,16.3333333 Z M14,14 L3.96666667,14 L8.98333333,8.98333333 L14,3.96666667 L14,14 L14,14 Z" id="Shape"></path>
                    <path d="M57.1666667,33.8333333 C64.2833333,33.8333333 70,28.1166667 70,21 C70,13.8833333 64.2833333,8.16666667 57.1666667,8.16666667 C50.05,8.16666667 44.3333333,13.8833333 44.3333333,21 C44.3333333,28.1166667 50.05,33.8333333 57.1666667,33.8333333 Z M57.1666667,10.5 C63,10.5 67.6666667,15.1666667 67.6666667,21 C67.6666667,26.8333333 63,31.5 57.1666667,31.5 C51.3333333,31.5 46.6666667,26.8333333 46.6666667,21 C46.6666667,15.1666667 51.3333333,10.5 57.1666667,10.5 Z" id="Shape"></path>
                    <path d="M54.8333333,26.8333333 L56,26.8333333 L56,29.1666667 L58.3333333,29.1666667 L58.3333333,26.8333333 L59.5,26.8333333 C60.9,26.8333333 61.8333333,25.9 61.8333333,24.5 L61.8333333,22.1666667 C61.8333333,20.7666667 60.9,19.8333333 59.5,19.8333333 L54.8333333,19.8333333 L54.8333333,17.5 L59.5,17.5 L59.5,18.6666667 L61.8333333,18.6666667 L61.8333333,17.5 C61.8333333,16.1 60.9,15.1666667 59.5,15.1666667 L58.3333333,15.1666667 L58.3333333,12.8333333 L56,12.8333333 L56,15.1666667 L54.8333333,15.1666667 C53.4333333,15.1666667 52.5,16.1 52.5,17.5 L52.5,19.8333333 C52.5,21.2333333 53.4333333,22.1666667 54.8333333,22.1666667 L59.5,22.1666667 L59.5,24.5 L54.8333333,24.5 L54.8333333,23.3333333 L52.5,23.3333333 L52.5,24.5 C52.5,25.9 53.4333333,26.8333333 54.8333333,26.8333333 Z" id="Shape"></path>
                    <path d="M68.8333333,42 L47.8333333,42 C47.1333333,42 46.6666667,42.4666667 46.6666667,43.1666667 L46.6666667,68.8333333 C46.6666667,69.5333333 47.1333333,70 47.8333333,70 L68.8333333,70 C69.5333333,70 70,69.5333333 70,68.8333333 L70,43.1666667 C70,42.4666667 69.5333333,42 68.8333333,42 Z M67.6666667,44.3333333 L67.6666667,49 L49,49 L49,44.3333333 L67.6666667,44.3333333 Z M49,67.6666667 L49,51.3333333 L67.6666667,51.3333333 L67.6666667,67.6666667 L49,67.6666667 Z" id="Shape"></path>
                    <rect id="Rectangle-path" x="52.5" y="53.6666667" width="2.33333333" height="2.33333333"></rect>
                    <rect id="Rectangle-path" x="57.1666667" y="53.6666667" width="2.33333333" height="2.33333333"></rect>
                    <rect id="Rectangle-path" x="61.8333333" y="53.6666667" width="2.33333333" height="2.33333333"></rect>
                    <rect id="Rectangle-path" x="52.5" y="58.3333333" width="2.33333333" height="2.33333333"></rect>
                    <rect id="Rectangle-path" x="57.1666667" y="58.3333333" width="2.33333333" height="2.33333333"></rect>
                    <rect id="Rectangle-path" x="61.8333333" y="58.3333333" width="2.33333333" height="2.33333333"></rect>
                    <rect id="Rectangle-path" x="52.5" y="63" width="2.33333333" height="2.33333333"></rect>
                    <rect id="Rectangle-path" x="57.1666667" y="63" width="2.33333333" height="2.33333333"></rect>
                    <rect id="Rectangle-path" x="61.8333333" y="63" width="2.33333333" height="2.33333333"></rect>
                    <rect id="Rectangle-path" x="50.1666667" y="45.5" width="2.33333333" height="2.33333333"></rect>
                    <rect id="Rectangle-path" x="53.6666667" y="45.5" width="2.33333333" height="2.33333333"></rect>
                    <rect id="Rectangle-path" x="57.1666667" y="45.5" width="2.33333333" height="2.33333333"></rect>
                    <rect id="Rectangle-path" x="60.6666667" y="45.5" width="2.33333333" height="2.33333333"></rect>
                    <rect id="Rectangle-path" x="64.1666667" y="45.5" width="2.33333333" height="2.33333333"></rect>
                    <rect id="Rectangle-path" x="22.1666667" y="5.83333333" width="7" height="2.33333333"></rect>
                    <rect id="Rectangle-path" x="22.1666667" y="11.6666667" width="17.5" height="2.33333333"></rect>
                    <path d="M10.85,21.35 L7.35,24.85 L8.98333333,26.4833333 L10.5,24.9666667 L10.5,40.8333333 L12.8333333,40.8333333 L12.8333333,24.9666667 L14.35,26.4833333 L15.9833333,24.85 L12.4833333,21.35 C12.0166667,20.8833333 11.3166667,20.8833333 10.85,21.35 Z" id="Shape"></path>
                    <path d="M20.65,31.15 L22.1666667,29.6333333 L22.1666667,40.8333333 L24.5,40.8333333 L24.5,29.6333333 L26.0166667,31.15 L27.65,29.5166667 L24.15,26.0166667 C23.6833333,25.55 22.9833333,25.55 22.5166667,26.0166667 L19.0166667,29.5166667 L20.65,31.15 Z" id="Shape"></path>
                    <path d="M36.1666667,22.6333333 L37.6833333,24.15 L39.3166667,22.5166667 L35.8166667,19.0166667 C35.35,18.55 34.65,18.55 34.1833333,19.0166667 L30.6833333,22.5166667 L32.3166667,24.15 L33.8333333,22.6333333 L33.8333333,40.8333333 L36.1666667,40.8333333 L36.1666667,22.6333333 L36.1666667,22.6333333 Z" id="Shape"></path>
                    <rect id="Rectangle-path" x="10.5" y="46.6666667" width="17.5" height="2.33333333"></rect>
                    <rect id="Rectangle-path" x="10.5" y="52.5" width="30.3333333" height="2.33333333"></rect>
                    <rect id="Rectangle-path" x="10.5" y="58.3333333" width="30.3333333" height="2.33333333"></rect>
                    <rect id="Rectangle-path" x="30.3333333" y="46.6666667" width="4.66666667" height="2.33333333"></rect>
                </g>
            </g>
        </g>
    </g>
</svg>