<?xml version="1.0" encoding="UTF-8"?>
<svg width="80px" height="69px" viewBox="0 0 80 69" version="1.1" xmlns="http://www.w3.org/2000/svg" xmlns:xlink="http://www.w3.org/1999/xlink">
    <!-- Generator: Sketch 44.1 (41455) - http://www.bohemiancoding.com/sketch -->
    <title>002-restaurant@1x</title>
    <desc>Created with Sketch.</desc>
    <defs></defs>
    <g id="Page-1" stroke="none" stroke-width="1" fill="none" fill-rule="evenodd">
        <g id="Rocket-Equities" transform="translate(-831.000000, -832.000000)" fill-rule="nonzero" fill="#29414E">
            <g id="Industries" transform="translate(0.000000, 587.000000)">
                <g id="002-restaurant" transform="translate(831.000000, 245.000000)">
                    <path d="M80,26.8682505 L80,14.0820734 C80,13.1770194 79.2635853,12.4406048 78.3585313,12.4406048 L77.2354212,12.4406048 L77.2354212,8.20734341 C77.2354212,5.96838013 75.4139093,4.14686825 73.174946,4.14686825 L59.2656587,4.14686825 L59.2656587,4.06047516 C59.2656587,1.82151188 57.4441469,0 55.2051836,0 L24.7948164,0 C22.5558531,0 20.7343413,1.82151188 20.7343413,4.06047516 L20.7343413,4.14686825 L6.825054,4.14686825 C4.58609071,4.14686825 2.76457883,5.96838013 2.76457883,8.20734341 L2.76457883,12.4406048 L1.64146868,12.4406048 C0.736414687,12.4406048 0,13.1770194 0,14.0820734 L0,26.8682505 C0,29.0066523 1.10064795,30.892095 2.76457883,31.990324 L2.76457883,66.349892 L1.29589633,66.349892 C0.580215983,66.349892 0,66.930108 0,67.6457883 C0,68.3614687 0.580215983,68.9416847 1.29589633,68.9416847 L78.7041037,68.9416847 C79.419784,68.9416847 80,68.3614687 80,67.6457883 C80,66.930108 79.419784,66.349892 78.7041037,66.349892 L77.2354212,66.349892 L77.2354212,31.990324 C78.8993521,30.892095 80,29.0066523 80,26.8682505 Z M23.3261339,4.06047516 C23.3261339,3.25062635 23.9849676,2.59179266 24.7948164,2.59179266 L55.2051836,2.59179266 C56.0150324,2.59179266 56.6738661,3.25062635 56.6738661,4.06047516 L56.6738661,5.43602592 C56.6738661,5.43827214 56.6735205,5.44034557 56.6735205,5.44276458 C56.6735205,5.4438013 56.6736933,5.4450108 56.6736933,5.4462203 C56.6717927,6.25434125 56.0138229,6.91144708 55.2051836,6.91144708 L24.7948164,6.91144708 C23.9849676,6.91144708 23.3261339,6.25261339 23.3261339,5.44276458 L23.3261339,4.06047516 Z M5.35637149,8.20734341 C5.35637149,7.3974946 6.01520518,6.73866091 6.825054,6.73866091 L20.9475594,6.73866091 C21.4897624,8.34384449 23.0088985,9.50323974 24.7948164,9.50323974 L55.2051836,9.50323974 C56.9911015,9.50323974 58.5102376,8.34384449 59.0524406,6.73866091 L73.174946,6.73866091 C73.9847948,6.73866091 74.6436285,7.3974946 74.6436285,8.20734341 L74.6436285,12.4406048 L5.35637149,12.4406048 L5.35637149,8.20734341 Z M67.7321814,15.0323974 L67.7321814,26.8682505 C67.7321814,28.8214255 66.1432397,30.4103672 64.1900648,30.4103672 C62.2368898,30.4103672 60.6479482,28.8214255 60.6479482,26.8682505 L60.6479482,15.0323974 L67.7321814,15.0323974 Z M58.0561555,15.0323974 L58.0561555,26.8682505 C58.0561555,28.8214255 56.4672138,30.4103672 54.5140389,30.4103672 C52.5608639,30.4103672 50.9719222,28.8214255 50.9719222,26.8682505 L50.9719222,15.0323974 L58.0561555,15.0323974 Z M48.3801296,15.0323974 L48.3801296,26.8682505 C48.3801296,28.8214255 46.7911879,30.4103672 44.838013,30.4103672 C42.884838,30.4103672 41.2958963,28.8214255 41.2958963,26.8682505 L41.2958963,15.0323974 L48.3801296,15.0323974 Z M38.7041037,15.0323974 L38.7041037,26.8682505 C38.7041037,28.8214255 37.115162,30.4103672 35.161987,30.4103672 C33.2088121,30.4103672 31.6198704,28.8214255 31.6198704,26.8682505 L31.6198704,15.0323974 L38.7041037,15.0323974 Z M29.0280778,15.0323974 L29.0280778,26.8682505 C29.0280778,28.8214255 27.4391361,30.4103672 25.4859611,30.4103672 C23.5327862,30.4103672 21.9438445,28.8214255 21.9438445,26.8682505 L21.9438445,15.0323974 L29.0280778,15.0323974 Z M19.3520518,15.0323974 L19.3520518,26.8682505 C19.3520518,28.8214255 17.7631102,30.4103672 15.8099352,30.4103672 C13.8567603,30.4103672 12.2678186,28.8214255 12.2678186,26.8682505 L12.2678186,15.0323974 L19.3520518,15.0323974 Z M2.59179266,26.8682505 L2.59179266,15.0323974 L9.67602592,15.0323974 L9.67602592,26.8682505 C9.67602592,28.8214255 8.08708423,30.4103672 6.13390929,30.4103672 C4.18073434,30.4103672 2.59179266,28.8214255 2.59179266,26.8682505 Z M24.8812095,66.349892 L10.8855292,66.349892 L10.8855292,63.412527 L24.8812095,63.412527 L24.8812095,66.349892 Z M24.8812095,60.8207343 L10.8855292,60.8207343 L10.8855292,38.5313175 L24.8812095,38.5313175 L24.8812095,60.8207343 Z M74.6436285,66.349892 L27.4730022,66.349892 L27.4730022,37.2354212 C27.4730022,36.5197408 26.8927862,35.9395248 26.1771058,35.9395248 L9.58963283,35.9395248 C8.87395248,35.9395248 8.2937365,36.5197408 8.2937365,37.2354212 L8.2937365,66.349892 L5.35637149,66.349892 L5.35637149,32.9511879 C5.6112311,32.9836717 5.87041037,33.0021598 6.13390929,33.0021598 C8.09814255,33.0021598 9.84846652,32.0729158 10.9719222,30.6322246 C12.095378,32.0729158 13.8457019,33.0021598 15.8099352,33.0021598 C17.7741685,33.0021598 19.5244924,32.0729158 20.6479482,30.6322246 C21.7714039,32.0729158 23.5217279,33.0021598 25.4859611,33.0021598 C27.4501944,33.0021598 29.2005184,32.0729158 30.3239741,30.6322246 C31.4474298,32.0729158 33.1977538,33.0021598 35.161987,33.0021598 C37.1262203,33.0021598 38.8765443,32.0729158 40,30.6322246 C41.1234557,32.0729158 42.8737797,33.0021598 44.838013,33.0021598 C46.8022462,33.0021598 48.5525702,32.0729158 49.6760259,30.6322246 C50.7994816,32.0729158 52.5498056,33.0021598 54.5140389,33.0021598 C56.4782721,33.0021598 58.2285961,32.0729158 59.3520518,30.6322246 C60.4755076,32.0729158 62.2258315,33.0021598 64.1900648,33.0021598 C66.1542981,33.0021598 67.904622,32.0729158 69.0280778,30.6322246 C70.1515335,32.0729158 71.9018575,33.0021598 73.8660907,33.0021598 C74.1295896,33.0021598 74.3887689,32.9836717 74.6436285,32.9511879 L74.6436285,66.349892 Z M73.8660907,30.4103672 C71.9129158,30.4103672 70.3239741,28.8214255 70.3239741,26.8682505 L70.3239741,15.0323974 L77.4082073,15.0323974 L77.4082073,26.8682505 C77.4082073,28.8214255 75.8192657,30.4103672 73.8660907,30.4103672 Z" id="Shape"></path>
                    <path d="M70.4103672,35.9395248 L31.7062635,35.9395248 C30.9905832,35.9395248 30.4103672,36.5197408 30.4103672,37.2354212 L30.4103672,62.1166307 C30.4103672,62.832311 30.9905832,63.412527 31.7062635,63.412527 L70.4103672,63.412527 C71.1260475,63.412527 71.7062635,62.832311 71.7062635,62.1166307 L71.7062635,37.2354212 C71.7062635,36.5197408 71.1260475,35.9395248 70.4103672,35.9395248 Z M69.1144708,60.8207343 L60.6479482,60.8207343 L60.6479482,56.5010799 L64.8812095,56.5010799 C65.5968898,56.5010799 66.1771058,55.9208639 66.1771058,55.2051836 C66.1771058,54.4895032 65.5968898,53.9092873 64.8812095,53.9092873 L53.8228942,53.9092873 C53.1072138,53.9092873 52.5269978,54.4895032 52.5269978,55.2051836 C52.5269978,55.9208639 53.1072138,56.5010799 53.8228942,56.5010799 L58.0561555,56.5010799 L58.0561555,60.8207343 L44.0604752,60.8207343 L44.0604752,56.5010799 L48.2937365,56.5010799 C49.0094168,56.5010799 49.5896328,55.9208639 49.5896328,55.2051836 C49.5896328,54.4895032 49.0094168,53.9092873 48.2937365,53.9092873 L37.2354212,53.9092873 C36.5197408,53.9092873 35.9395248,54.4895032 35.9395248,55.2051836 C35.9395248,55.9208639 36.5197408,56.5010799 37.2354212,56.5010799 L41.4686825,56.5010799 L41.4686825,60.8207343 L33.0021598,60.8207343 L33.0021598,38.5313175 L41.4686825,38.5313175 L41.4686825,40.2434557 C39.0913175,40.8266091 37.3218143,42.974514 37.3218143,45.5291577 C37.3218143,46.244838 37.9020302,46.825054 38.6177106,46.825054 L41.4686825,46.825054 L41.4686825,46.9114471 C41.4686825,47.6271274 42.0488985,48.2073434 42.7645788,48.2073434 C43.4802592,48.2073434 44.0604752,47.6271274 44.0604752,46.9114471 L44.0604752,46.825054 L46.9114471,46.825054 C47.6271274,46.825054 48.2073434,46.244838 48.2073434,45.5291577 C48.2073434,42.974514 46.4378402,40.8266091 44.0604752,40.2434557 L44.0604752,38.5313175 L58.0561555,38.5313175 L58.0561555,40.2434557 C55.6787905,40.8266091 53.9092873,42.974514 53.9092873,45.5291577 C53.9092873,46.244838 54.4895032,46.825054 55.2051836,46.825054 L58.0561555,46.825054 L58.0561555,46.9114471 C58.0561555,47.6271274 58.6363715,48.2073434 59.3520518,48.2073434 C60.0677322,48.2073434 60.6479482,47.6271274 60.6479482,46.9114471 L60.6479482,46.825054 L63.4989201,46.825054 C64.2146004,46.825054 64.7948164,46.244838 64.7948164,45.5291577 C64.7948164,42.974514 63.0253132,40.8266091 60.6479482,40.2434557 L60.6479482,38.5313175 L69.1144708,38.5313175 L69.1144708,60.8207343 Z M42.7645788,42.6781857 C43.8704104,42.6781857 44.8309287,43.3109287 45.3036717,44.2332613 L40.225486,44.2332613 C40.6980562,43.3109287 41.6587473,42.6781857 42.7645788,42.6781857 Z M59.3520518,42.6781857 C60.4578834,42.6781857 61.4184017,43.3109287 61.8911447,44.2332613 L56.812959,44.2332613 C57.2855292,43.3109287 58.2462203,42.6781857 59.3520518,42.6781857 Z" id="Shape"></path>
                    <path d="M22.0302376,53.7365011 C22.7459179,53.7365011 23.3261339,53.1562851 23.3261339,52.4406048 L23.3261339,49.6760259 C23.3261339,48.9603456 22.7459179,48.3801296 22.0302376,48.3801296 C21.3145572,48.3801296 20.7343413,48.9603456 20.7343413,49.6760259 L20.7343413,52.4406048 C20.7343413,53.1562851 21.3145572,53.7365011 22.0302376,53.7365011 Z" id="Shape"></path>
                </g>
            </g>
        </g>
    </g>
</svg>