<?xml version="1.0" encoding="UTF-8"?>
<svg width="70px" height="80px" viewBox="0 0 70 80" version="1.1" xmlns="http://www.w3.org/2000/svg" xmlns:xlink="http://www.w3.org/1999/xlink">
    <!-- Generator: Sketch 44.1 (41455) - http://www.bohemiancoding.com/sketch -->
    <title>001-sprout@1x</title>
    <desc>Created with Sketch.</desc>
    <defs></defs>
    <g id="Page-1" stroke="none" stroke-width="1" fill="none" fill-rule="evenodd">
        <g id="Rocket-Equities" transform="translate(-232.000000, -820.000000)" fill-rule="nonzero" fill="#2A414E">
            <g id="Industries" transform="translate(0.000000, 587.000000)">
                <g id="001-sprout" transform="translate(232.000000, 233.000000)">
                    <path d="M68.4032949,77.4952477 L63.9264328,77.4952477 C58.2206679,71.120266 47.7686665,67.0952775 36.2530745,66.8221533 L36.2530745,58.7063953 C36.2530745,58.706239 36.2530745,58.7059265 36.2530745,58.705614 L36.2530745,52.5442254 L43.7099282,45.0873718 C45.1183616,46.0933064 46.8239818,46.5873675 48.6085079,46.5873675 C51.3941249,46.5873675 54.3711476,45.3845584 56.7028597,43.0530026 C63.6672148,36.0884913 64.2870567,24.5149307 64.3100254,24.0257134 C64.3265879,23.6735269 64.193932,23.3305591 63.9445577,23.0811848 C63.6951834,22.8318105 63.3529969,22.6989984 63.0000292,22.7157171 C62.5108118,22.7385296 50.9372512,23.3585278 43.9727399,30.3228828 C41.9789956,32.3166271 40.7379054,34.8397449 40.4780624,37.4272375 C40.2552506,39.6461374 40.7713428,41.6930065 41.937902,43.3161269 L36.2529183,49.0012668 L36.2529183,25.9516454 C36.2529183,24.1449318 36.95651,22.4461867 38.2340064,21.1686903 L39.4366592,19.9661938 C40.6260308,20.7822852 42.0599329,21.2122839 43.6182097,21.2122839 C43.9074276,21.2122839 44.201333,21.1975965 44.4982072,21.1677528 C46.7633569,20.9404097 48.9706944,19.8554128 50.7138144,18.1122928 C56.7348909,12.0912163 57.5934822,1.78530834 57.6272321,1.34952834 C57.655357,0.984998129 57.5227011,0.626092907 57.2639518,0.367499898 C57.0053588,0.108750639 56.6470786,-0.023748981 56.2819234,0.00437593843 C55.8461434,0.0379695922 45.5403917,0.896560883 39.5191589,6.91779363 C37.7760389,8.66091364 36.6908858,10.8682511 36.4636989,13.1332446 C36.2732307,15.0298016 36.6971358,16.7851091 37.664633,18.1954176 L36.4626052,19.3974454 C34.711829,21.1480654 33.747613,23.4758712 33.747613,25.9518016 L33.747613,27.6342968 C33.6782382,27.560547 33.6098009,27.486016 33.5377698,27.4139849 L30.9996521,24.8758672 C31.9671493,23.465715 32.3910544,21.7104075 32.2008986,19.8136942 C31.9735555,17.5487007 30.8885587,15.341207 29.1454386,13.5982432 C23.1243621,7.5770105 12.8186104,6.71857545 12.3826742,6.68482555 C12.0179877,6.65638813 11.6592387,6.7893565 11.4006457,7.04794951 C11.1418965,7.30654252 11.0093968,7.66544774 11.0373655,8.02997795 C11.0711154,8.46575795 11.9295505,18.7716659 17.9507832,24.7927424 C19.6939032,26.5358624 21.9012406,27.6210156 24.1663904,27.8482024 C24.4635771,27.8780461 24.7570137,27.8927335 25.0463879,27.8927335 C26.6045084,27.8927335 28.0385668,27.4625785 29.2279384,26.6466434 L31.7666811,29.1853861 C33.0441775,30.4628824 33.7477692,32.1616276 33.7477692,33.9683411 L33.7477692,52.0250082 C33.7477692,52.0251644 33.7477692,52.0254769 33.7477692,52.0257894 L33.7477692,55.6818727 L28.0626292,49.9967327 C29.2291884,48.3734561 29.7452807,46.3267432 29.5224688,44.1078433 C29.2627821,41.520507 28.0218481,38.9973892 26.0277913,37.0034887 C19.06328,30.0391337 7.48971943,29.4192917 7.00050208,29.396323 C6.64878434,29.3796043 6.30519158,29.5125727 6.05597354,29.7617907 C5.80659925,30.011165 5.67378713,30.3539765 5.69050584,30.7063192 C5.71347452,31.1956928 6.3333165,42.7692534 13.2976715,49.7336085 C15.6295399,52.0654768 18.6060938,53.2679734 21.3920234,53.2679734 C23.1763932,53.2679734 24.8821696,52.773756 26.2906031,51.7678214 L33.7474567,59.2248313 L33.7474567,66.8221533 C22.2318647,67.0952775 11.7797071,71.1201097 6.07409849,77.4952477 L1.59770506,77.4952477 C0.905988292,77.4952477 0.345052399,78.0560274 0.345052399,78.7479004 C0.345052399,79.4396171 0.905832043,80.000553 1.59770506,80.000553 L68.4032949,80.000553 C69.0950117,80.000553 69.6559476,79.4397734 69.6559476,78.7479004 C69.6559476,78.0560274 69.0950117,77.4952477 68.4032949,77.4952477 Z M42.9708678,37.6777055 C43.1728985,35.6636488 44.1578956,33.6809982 45.7441411,32.0945965 C50.654127,27.1847668 58.4609797,25.7511772 61.6697205,25.3577408 C61.2795653,28.5639816 59.8528507,36.3603655 54.931146,41.2819139 C52.1078729,44.1051871 48.151478,44.8667474 45.5169542,43.2803457 L57.2639518,31.5335044 C57.7531692,31.044287 57.7531692,30.2513205 57.2639518,29.7621032 C56.7747345,29.2728858 55.9816118,29.2728858 55.4925507,29.7621032 L43.7450843,41.5095695 C43.0991487,40.4355101 42.8268057,39.1142639 42.9708678,37.6777055 Z M38.956348,13.3834001 C39.1261913,11.6918425 39.9550952,10.024816 41.2907164,8.68935106 C45.3625797,4.61748772 51.9578733,3.16592938 54.9333335,2.69999322 C54.4705224,5.67295345 53.0241202,12.2593408 48.9425694,16.3410479 C47.6069483,17.6765128 45.9397655,18.5055729 44.2483641,18.6754162 C43.1382111,18.7868221 42.1127453,18.6001039 41.2586852,18.1447927 L50.5836585,8.81981944 C51.0728758,8.33060209 51.0728758,7.53763561 50.5836585,7.04841826 C50.0944411,6.55920091 49.3013184,6.55920091 48.8122573,7.04841826 L39.4871278,16.3729228 C39.0316603,15.5188627 38.8449421,14.4932407 38.956348,13.3834001 Z M29.1777823,23.0533724 L19.852809,13.7282429 C19.3635917,13.2390255 18.5704689,13.2390255 18.0814078,13.7282429 C17.5921905,14.2174602 17.5921905,15.0104267 18.0814078,15.4996441 L27.4063811,24.8247736 C26.5518523,25.2803973 25.5265428,25.4671155 24.4165459,25.3557096 C22.7249883,25.1858663 21.0579618,24.3569624 19.7223406,23.0213413 C15.6512586,18.9502592 14.1993877,12.3566843 13.7334515,9.38059908 C16.7095368,9.84653524 23.3029554,11.2984061 27.3741937,15.3694882 C28.7098149,16.7049531 29.5387188,18.3721358 29.708562,20.0635372 C29.8198117,21.173534 29.6330935,22.1991561 29.1777823,23.0533724 Z M26.2559157,48.1901754 L14.5084493,36.4427091 C14.019232,35.9534917 13.2261092,35.9534917 12.7370482,36.4427091 C12.2478308,36.9319264 12.2478308,37.7248929 12.7370482,38.2141102 L24.4838895,49.9609516 C21.8490533,51.547197 17.8928146,50.785793 15.0695415,47.9625198 C10.1603368,43.0533151 8.72643464,35.2483375 8.33284202,32.0386592 C11.5425203,32.4322518 19.3476542,33.8661539 24.2568589,38.7753586 C25.8431044,40.3617603 26.8282578,42.3444109 27.0301322,44.3584676 C27.1741943,45.795026 26.9016951,47.1162722 26.2559157,48.1901754 Z M9.62002583,77.4952477 C15.3507907,72.3960436 24.7593575,69.3115212 35.0004219,69.3115212 C45.2414863,69.3115212 54.6502093,72.3958873 60.3808179,77.4952477 L9.62002583,77.4952477 Z" id="Shape"></path>
                </g>
            </g>
        </g>
    </g>
</svg>