<?xml version="1.0" encoding="UTF-8"?>
<svg width="142px" height="190px" viewBox="0 0 142 190" version="1.1" xmlns="http://www.w3.org/2000/svg" xmlns:xlink="http://www.w3.org/1999/xlink">
    <!-- Generator: Sketch 44.1 (41455) - http://www.bohemiancoding.com/sketch -->
    <title>startup@1x</title>
    <desc>Created with Sketch.</desc>
    <defs></defs>
    <g id="Page-1" stroke="none" stroke-width="1" fill="none" fill-rule="evenodd">
        <g id="Rocket-Equities" transform="translate(-646.000000, -282.000000)">
            <g id="Modal-Success">
                <g id="startup" transform="translate(716.732233, 397.915999) rotate(-315.000000) translate(-716.732233, -397.915999) translate(635.732233, 314.415999)">
                    <path d="M114.547205,106.990855 C114.929791,106.830451 115.32028,106.685154 115.717924,106.55571 C113.96838,104.069037 112.941125,101.037473 112.941125,97.7659813 C112.941125,89.3199496 119.787987,82.4730881 128.234019,82.4730881 C128.663089,82.4730881 129.088031,82.4907583 129.508159,82.5254108 C126.877496,79.3959887 125.292893,75.35792 125.292893,70.9497475 C125.292893,61.008622 133.351768,52.9497475 143.292893,52.9497475 C153.234019,52.9497475 161.292893,61.008622 161.292893,70.9497475 C161.292893,75.6952627 159.456482,80.011861 156.455543,83.227658 C159.791568,86.0329662 161.911688,90.2376699 161.911688,94.9375542 C161.911688,103.237259 155.300014,109.992725 147.056308,110.224309 C146.861605,117.155151 142.0555,122.932391 135.59729,124.596734 C135.69711,125.302594 135.748737,126.023947 135.748737,126.757359 C135.748737,135.203391 128.901876,142.050253 120.455844,142.050253 C119.844674,142.050253 119.241878,142.014401 118.649444,141.944686 C116.324102,146.706453 111.598047,150.081253 106.047254,150.493112 C106.04925,150.594831 106.050253,150.696793 106.050253,150.79899 C106.050253,159.245022 99.203391,166.091883 90.7573593,166.091883 C86.9207364,166.091883 83.4140933,164.679071 80.7293084,162.345325 C77.9491476,164.10359 74.6540859,165.12132 71.1213203,165.12132 C61.1801948,165.12132 53.1213203,157.062446 53.1213203,147.12132 C53.1213203,137.180195 61.1801948,129.12132 71.1213203,129.12132 C76.0964759,129.12132 80.6001987,131.139764 83.8582686,134.402431 C83.0081704,132.499318 82.5355339,130.390641 82.5355339,128.171573 C82.5355339,119.725541 89.3823954,112.87868 97.8284271,112.87868 C100.943211,112.87868 103.840503,113.809878 106.257096,115.409069 C106.366031,115.137552 106.482528,114.869885 106.606327,114.606327 L92.4055916,100.405592 L100.183766,92.627417 L114.547205,106.990855 Z" id="Combined-Shape" fill="#ECECEC"></path>
                    <path d="M77.6912133,69.234922 L69,69 L69.234922,77.6912133 C69.4698439,91.7851821 81.2148179,103.295234 95.3087867,103.765078 L104,104 L103.765078,95.3087867 C103.295009,81.2148179 91.7849573,69.4698439 77.6912133,69.234922 Z" id="Shape" fill="#F8B64C" fill-rule="nonzero"></path>
                    <path d="M80.0746932,74.2336678 L74,74 L74.2336678,80.0746932 C74.4673357,90.1215162 82.8784838,98.5326643 92.9253068,98.7663322 L99,99 L98.7663322,92.9253068 C98.5326643,82.8784838 90.1212926,74.4673357 80.0746932,74.2336678 Z" id="Shape" fill="#FFD15C" fill-rule="nonzero"></path>
                    <path d="M112.96657,68.6008381 C111.795969,66.4882001 110.156814,64.6103247 108.517882,62.9669871 C104.30336,58.7417113 99.1521772,55.9247858 93.5326644,54.5164354 C82.996358,51.9342724 71.2892264,54.7511979 63.0941222,62.9669871 C54.899018,71.1827764 52.0894857,82.9197786 54.6650771,93.483193 C56.0698432,98.8822814 58.8795996,104.281145 63.0941222,108.506421 C64.7330534,110.149534 66.8403147,111.792872 68.713635,112.966459 C56.5381733,113.435984 43.8946056,108.975946 34.5289004,99.5863443 C27.0362913,92.0746179 22.8217688,82.9197786 21.4170026,73.2954143 C19.5439064,59.4457741 23.992594,45.1266089 34.5289004,34.5634192 C45.0652068,24.0002295 59.5820948,19.5401911 73.1623226,21.4180666 C82.7621929,22.826417 92.1278982,27.0519175 99.3863422,34.5634192 C108.986213,43.7184832 113.4349,56.3945355 112.96657,68.6008381 Z" id="Shape" fill="#DA251F" fill-rule="nonzero"></path>
                    <path d="M93,68.9325559 C86.3933082,28.5844727 51.7080069,-1.14575328 8.76417151,0.0339082681 L0.269885741,0.269885741 L0.0339082681,8.76417151 C-1.14575328,51.7080069 28.5844727,86.3933082 68.9325559,93 L93,68.9325559 Z" id="Shape" fill="#EDEDED" fill-rule="nonzero"></path>
                    <g id="Group" fill-rule="nonzero" fill="#29414E">
                        <path d="M50.0570352,87.7196144 C56.0072294,90.1197688 62.1956866,91.799808 68.621951,93 L92.6612187,68.7584179 C91.7090783,62.27807 89.8050252,56.0375308 87.424902,50.0372597 L50.0570352,87.7196144 Z" id="Shape"></path>
                        <path d="M36.52109,3.80780825 C27.8670462,1.21328883 18.5112506,-0.202026699 8.68762044,0.0338592233 L0.267493917,0.269745146 L0.0335766423,8.76073544 C-0.200340633,18.6670413 1.20293917,28.1015752 3.77580535,36.8284515 L36.52109,3.80780825 Z" id="Shape"></path>
                    </g>
                    <path d="M68,93.0094245 C70.4762018,93.5047123 73.2000474,93.7523561 75.6762492,94 L94,75.6762492 C93.7523561,72.9524035 93.5047123,70.4762018 93.0094245,68 L68,93.0094245 Z" id="Shape" fill="#EDEDED" fill-rule="nonzero"></path>
                    <circle id="Oval" fill="#40596B" fill-rule="nonzero" cx="39" cy="40" r="18"></circle>
                    <circle id="Oval" fill="#557AA6" fill-rule="nonzero" cx="38.5" cy="39.5" r="12.5"></circle>
                </g>
            </g>
        </g>
    </g>
</svg>